<svg xmlns="http://www.w3.org/2000/svg" xmlns:xlink="http://www.w3.org/1999/xlink" xmlns:lucid="lucid" width="1372" height="736"><g transform="translate(-436 0)" lucid:page-tab-id="g~hzFxWSo7cZ"><path d="M1537 536.86h15.8v11.73H1537v-11.74zM1597.2 404.94h62.8v153.34h-62.8V404.94z" fill="#29aae1"/><path d="M1461 430.78h166.2v106.25H1461V430.78z" fill="#29aae1"/><path d="M1468.6 437.24h151.6v95.03h-151.6v-95.03z" fill="#fff" fill-opacity=".98"/><path d="M1467.6 549.44H1619l-7.4 25.33H1460l7.6-25.33z" fill="#29aae1"/><path d="M1466.6 548.6h155l13 26.34h-155l-13-26.35z" fill="#29aae1"/><path d="M1519.2 568.14h55.2v5.27h-55.2v-5.26zM1488.8 552.67h4.2v3.4h-4.2v-3.4zM1496 552.84h4.2v3.4h-4.2v-3.4zM1505.4 558.96h4v3.4h-4v-3.4zM1503.8 552.5h4.2v3.4h-4.2v-3.4zM1510.8 552.67h4.2v3.4h-4.2v-3.4zM1517.8 552.5h4v3.4h-4v-3.4zM1560.4 553h4.2v3.4h-4.2V553zM1566.8 553h4v3.4h-4V553zM1572.6 553h4.2v3.4h-4.2V553zM1579.6 553h4.2v3.4h-4.2V553zM1586.2 553h4v3.4h-4V553zM1578.4 558.62h4.2v3.4h-4.2v-3.4zM1593.6 553h4.2v3.4h-4.2V553zM1513 558.8h4.2v3.4h-4.2v-3.4zM1521 558.8h4v3.4h-4v-3.4zM1572 558.45h3.6v3.4h-3.6v-3.4zM1565 558.45h4v3.4h-4v-3.4zM1525.4 552.67h4v3.4h-4v-3.4zM1533 552.84h4.2v3.4h-4.2v-3.4zM1540.2 552.67h4.2v3.4h-4.2v-3.4zM1548.2 552.67h4v3.4h-4v-3.4zM1554.6 552.84h4.2v3.4h-4.2v-3.4zM1528 558.62h4v3.4h-4v-3.4zM1535.6 558.62h4.2v3.4h-4.2v-3.4zM1543 558.8h4v3.4h-4v-3.4zM1550 558.8h4.2v3.4h-4.2v-3.4zM1557.4 558.45h4v3.4h-4v-3.4z" fill="#fff"/><path d="M1460.2 574.77l174.4-.5-12.4-25.68-154.4.16-7.6 26z" fill="none"/><path d="M1641.6 412.93h11.2c1.2 0 1.2 0 1.2 1.2 0 1.18 0 1.18-1.2 1.18h-11.2c-1.2 0-1.2 0-1.2-1.18 0-1.2 0-1.2 1.2-1.2zM1641.6 418.54h11.4c1 0 1 0 1 1.02s0 1.02-1 1.02h-11.4c-1.2 0-1.2 0-1.2-1.02s0-1.02 1.2-1.02zM1597.4 429.08h30.2v1.36h-30.2v-1.36z" fill="#fff"/><path d="M1627.6 429.08h1.4v108.3h-1.4v-108.3z" fill="#fff"/><path d="M1597.2 537.2h31.6v1.53h-31.6v-1.53zM1597.4 545.87h24.2c1.2 0 1.2 0 1.2 1.2 0 1.35 0 1.35-1.2 1.35h-24.2c-1.2 0-1.2 0-1.2-1.36 0-1.2 0-1.2 1.2-1.2z" fill="#fff"/><path d="M1622.6 546.2l6.8 11.74-2 1.2-6.6-11.9 1.8-1.03zM1536.2 536.86h17v1.7h-17v-1.7zM1536.8 546.72h16.2v1.87h-16.2v-1.88z" fill="#fff"/><use xlink:href="#a" transform="matrix(1,0,0,1,1430,574.9399999999999) translate(117.525 18.6)"/><path d="M797 536.92h15.8v11.73H797v-11.73zM857.2 405H920v153.34h-62.8V405z" fill="#29aae1"/><path d="M721 430.84h166.2V537.1H721V430.83z" fill="#29aae1"/><path d="M728.6 437.3h151.6v95.03H728.6V437.3z" fill="#fff" fill-opacity=".98"/><path d="M727.6 549.5H879l-7.4 25.33H720l7.6-25.33z" fill="#29aae1"/><path d="M726.6 548.65h155l13 26.35h-155l-13-26.35z" fill="#29aae1"/><path d="M779.2 568.2h55.2v5.27h-55.2v-5.27zM748.8 552.73h4.2v3.4h-4.2v-3.4zM756 552.9h4.2v3.4H756v-3.4zM765.4 559.02h4v3.4h-4v-3.4zM763.8 552.56h4.2v3.4h-4.2v-3.4zM770.8 552.73h4.2v3.4h-4.2v-3.4zM777.8 552.56h4v3.4h-4v-3.4zM820.4 553.07h4.2v3.4h-4.2v-3.4zM826.8 553.07h4v3.4h-4v-3.4zM832.6 553.07h4.2v3.4h-4.2v-3.4zM839.6 553.07h4.2v3.4h-4.2v-3.4zM846.2 553.07h4v3.4h-4v-3.4zM838.4 558.68h4.2v3.4h-4.2v-3.4zM853.6 553.07h4.2v3.4h-4.2v-3.4zM773 558.85h4.2v3.4H773v-3.4zM781 558.85h4v3.4h-4v-3.4zM832 558.5h3.6v3.4H832v-3.4zM825 558.5h4v3.4h-4v-3.4zM785.4 552.73h4v3.4h-4v-3.4zM793 552.9h4.2v3.4H793v-3.4zM800.2 552.73h4.2v3.4h-4.2v-3.4zM808.2 552.73h4v3.4h-4v-3.4zM814.6 552.9h4.2v3.4h-4.2v-3.4zM788 558.68h4v3.4h-4v-3.4zM795.6 558.68h4.2v3.4h-4.2v-3.4zM803 558.85h4v3.4h-4v-3.4zM810 558.85h4.2v3.4H810v-3.4zM817.4 558.5h4v3.4h-4v-3.4z" fill="#fff"/><path d="M720.2 574.83l174.4-.5-12.4-25.68-154.4.17-7.6 26z" fill="none"/><path d="M901.6 413h11.2c1.2 0 1.2 0 1.2 1.18 0 1.2 0 1.2-1.2 1.2h-11.2c-1.2 0-1.2 0-1.2-1.2s0-1.2 1.2-1.2zM901.6 418.6H913c1 0 1 0 1 1.02s0 1.02-1 1.02h-11.4c-1.2 0-1.2 0-1.2-1.02s0-1.02 1.2-1.02zM857.4 429.14h30.2v1.36h-30.2v-1.36zM887.6 429.14h1.4v108.3h-1.4v-108.3z" fill="#fff"/><path d="M857.2 537.26h31.6v1.53h-31.6v-1.54zM857.4 545.93h24.2c1.2 0 1.2 0 1.2 1.2 0 1.35 0 1.35-1.2 1.35h-24.2c-1.2 0-1.2 0-1.2-1.36 0-1.2 0-1.2 1.2-1.2z" fill="#fff"/><path d="M882.6 546.27l6.8 11.73-2 1.2-6.6-11.9 1.8-1.03zM796.2 536.92h17v1.7h-17v-1.7zM796.8 546.78H813v1.87h-16.2v-1.87z" fill="#fff"/><use xlink:href="#a" transform="matrix(1,0,0,1,690,575) translate(117.525 18.6)"/><path d="M1075.83 464.44h149.85V511h-149.85v-46.56z" fill="#29aae1"/><path d="M1083.03 516.28h135.45v3.6h-135.45v-3.6z" fill="#2188b4"/><path d="M1082.88 482.2h13.95v5.88h-13.95v-5.88z" fill="#fff"/><path d="M1089.63 486.16c3.3 0 3.3 0 3.3 3.36v.6c0 3.24 0 3.24-3.3 3.24s-3.3 0-3.3-3.24v-.6c0-3.36 0-3.36 3.3-3.36zM1104.33 482.2h13.95v5.88h-13.95v-5.88z" fill="#fff"/><path d="M1111.08 486.16c3.3 0 3.3 0 3.3 3.36v.6c0 3.24 0 3.24-3.3 3.24s-3.3 0-3.3-3.24v-.6c0-3.36 0-3.36 3.3-3.36zM1126.98 482.2h13.95v5.88h-13.95v-5.88z" fill="#fff"/><path d="M1133.73 486.16c3.3 0 3.3 0 3.3 3.36v.6c0 3.24 0 3.24-3.3 3.24s-3.3 0-3.3-3.24v-.6c0-3.36 0-3.36 3.3-3.36zM1149.03 482.2h13.95v5.88h-13.95v-5.88z" fill="#fff"/><path d="M1155.78 486.16c3.3 0 3.3 0 3.3 3.36v.6c0 3.24 0 3.24-3.3 3.24s-3.3 0-3.3-3.24v-.6c0-3.36 0-3.36 3.3-3.36z" fill="#fff"/><path d="M1210.68 433.96c5.7 1.08 5.7 1.08 4.65 6.6l-5.4 27.48c-1.05 5.64-1.05 5.64-6.75 4.56-5.55-1.08-5.55-1.08-4.5-6.6l5.25-27.6c1.2-5.52 1.2-5.52 6.75-4.44z" fill="#29aae1"/><path d="M1216.68 403.48c3.45.72 3.45.72 2.85 4.08l-5.7 28.68c-.6 3.36-.6 3.36-4.05 2.76-3.6-.72-3.6-.72-2.85-4.08l5.55-28.68c.6-3.36.6-3.36 4.2-2.76z" fill="#29aae1"/><path d="M1180.38 468.04h40.2v37.92h-40.2v-37.92z" fill="#fff"/><path d="M1181.73 469.36h37.35v35.16h-37.35v-35.16z" fill="#54bbe7"/><path d="M1199.73 471.04l-4.5 4.68h2.4l.15 6.48h4.65l-.45-6.48h2.4l-4.65-4.68zM1200.48 501.76l4.5-4.44-2.25-.12-.15-6.48-4.65-.12.45 6.48h-2.55l4.65 4.68zM1202.13 486.76l4.5 4.68.15-2.28h6.45l.3-4.56-6.6.24v-1.68l.15-.72-4.95 4.32zM1198.23 486.76l-4.5-4.56-.15 2.28-6.45-.12-.3 4.56 6.6-.24v1.8l-.15.72 4.95-4.44z" fill="#fff"/><path d="M1090.53 431.56c5.55-1.08 5.55-1.08 6.6 4.44l5.4 27.48c1.2 5.64 1.2 5.64-4.5 6.72s-5.7 1.08-6.75-4.56l-5.4-27.48c-1.05-5.52-1.05-5.52 4.65-6.6z" fill="#29aae1"/><path d="M1084.53 401.08c3.45-.72 3.45-.72 4.2 2.76l5.55 28.68c.6 3.36.6 3.36-2.85 4.08-3.45.6-3.45.6-4.05-2.76l-5.7-28.68c-.6-3.48-.6-3.48 2.85-4.08z" fill="#29aae1"/><use xlink:href="#b" transform="matrix(1,0,0,1,1045.8333333333335,520) translate(78.05 18.6)"/><path d="M492.25 430h83.1v50.4h-83.1V430zM469.75 482.08H600.4c9.75 0 9.75 0 9.75 18.6s0 18.6-9.75 18.6H469.75c-9.75 0-9.75 0-9.75-18.6s0-18.6 9.75-18.6zM487 520.96h95.55V550H487v-29.04z" fill="#29aae1"/><path d="M460 498.88h24.9v35.16H460v-35.16zM585.1 499.12h25.05v36.12H585.1v-36.12z" fill="#29aae1"/><path d="M505.9 534.88h57.9c.9 0 .9 0 .9.72 0 .84 0 .84-.9.84h-57.9c-.9 0-.9 0-.9-.84 0-.72 0-.72.9-.72zM557.8 502.24c0 3-3 5.52-6.9 5.52-3.75 0-6.9-2.52-6.9-5.52 0-3 3.15-5.52 6.9-5.52 3.9 0 6.9 2.52 6.9 5.52zM579.7 502.24c0 3-3 5.52-6.9 5.52-3.9 0-6.9-2.52-6.9-5.52 0-3 3-5.52 6.9-5.52 3.9 0 6.9 2.52 6.9 5.52zM601 502.24c0 3-3.15 5.52-6.9 5.52-3.9 0-6.9-2.52-6.9-5.52 0-3 3-5.52 6.9-5.52 3.75 0 6.9 2.52 6.9 5.52z" fill="#fff"/><path d="M554.95 502.24c0 1.8-1.8 3.24-4.05 3.24-2.4 0-4.2-1.44-4.2-3.24 0-1.92 1.8-3.36 4.2-3.36 2.25 0 4.05 1.44 4.05 3.36zM577 502.36c0 1.8-1.8 3.36-4.05 3.36-2.4 0-4.2-1.56-4.2-3.36 0-1.8 1.8-3.24 4.2-3.24 2.25 0 4.05 1.44 4.05 3.24zM598.3 502.24c0 1.8-1.8 3.36-4.2 3.36-2.25 0-4.05-1.56-4.05-3.36 0-1.8 1.8-3.24 4.05-3.24 2.4 0 4.2 1.44 4.2 3.24z" fill="#54bbe7"/><use xlink:href="#c" transform="matrix(1,0,0,1,430,550) translate(78.575 18.6)"/><path d="M980 60h128.46v220.22H980V60z" fill="#29aae1"/><path d="M1029.02 212.9h65.33c2.05 0 2.05 0 2.05 2.2 0 1.98 0 1.98-2.06 1.98h-65.32c-2.18 0-2.18 0-2.18-1.98 0-2.2 0-2.2 2.18-2.2zM1029.15 224.12h65.07c2.82 0 2.82 0 2.82 2.86v.66c0 2.86 0 2.86-2.82 2.86h-65.07c-2.95 0-2.95 0-2.95-2.86v-.66c0-2.86 0-2.86 2.95-2.86zM1029.4 237.98h65.2c2.83 0 2.83 0 2.83 2.86v.66c0 2.86 0 2.86-2.83 2.86h-65.2c-2.82 0-2.82 0-2.82-2.86v-.66c0-2.86 0-2.86 2.83-2.86zM1088.83 166.92c0 5.72-4.62 10.34-10.53 10.34-5.9 0-10.65-4.62-10.65-10.34s4.75-10.34 10.65-10.34 10.53 4.62 10.53 10.34z" fill="#fff"/><path d="M1084.6 166.92c0 3.52-2.83 6.38-6.42 6.38-3.6 0-6.55-2.86-6.55-6.38s2.95-6.38 6.54-6.38c3.6 0 6.42 2.86 6.42 6.38z" fill="#54bbe7"/><use xlink:href="#d" transform="matrix(1,0,0,1,950,279.9999999999999) translate(68.05 18.6)"/><path d="M720 490H610.64" stroke="#000" stroke-width="2" fill="none"/><path d="M721 491h-1.03v-2H721zM610.67 491h-.98l-.1-2h1.07z"/><path d="M921 490h153.83" stroke="#000" stroke-width="2" fill="none"/><path d="M921.03 491H920v-2h1.03zM1075.83 491h-1.02v-2h1.03z"/><path d="M1460 489.94h-233.32" stroke="#000" stroke-width="2" fill="none"/><path d="M1461 490.94h-1.03v-2h1.03zM1226.7 490.94h-1.02v-2h1.03z"/><path d="M1150.83 463.44V170h-41.37" stroke="#000" stroke-width="2" fill="none"/><path d="M1151.83 464.44h-2v-1.03h2zM1109.5 171h-1.04v-2h1.03z"/><defs><path d="M30-248c87 1 191-15 191 75 0 78-77 80-158 76V0H30v-248zm33 125c57 0 124 11 124-50 0-59-68-47-124-48v98" id="e"/><path d="M212-179c-10-28-35-45-73-45-59 0-87 40-87 99 0 60 29 101 89 101 43 0 62-24 78-52l27 14C228-24 195 4 139 4 59 4 22-46 18-125c-6-104 99-153 187-111 19 9 31 26 39 46" id="f"/><g id="a"><use transform="matrix(0.05,0,0,0.05,0,0)" xlink:href="#e"/><use transform="matrix(0.05,0,0,0.05,12,0)" xlink:href="#f"/></g><path d="M233-177c-1 41-23 64-60 70L243 0h-38l-65-103H63V0H30v-248c88 3 205-21 203 71zM63-129c60-2 137 13 137-47 0-61-80-42-137-45v92" id="g"/><path d="M100-194c62-1 85 37 85 99 1 63-27 99-86 99S16-35 15-95c0-66 28-99 85-99zM99-20c44 1 53-31 53-75 0-43-8-75-51-75s-53 32-53 75 10 74 51 75" id="h"/><path d="M84 4C-5 8 30-112 23-190h32v120c0 31 7 50 39 49 72-2 45-101 50-169h31l1 190h-30c-1-10 1-25-2-33-11 22-28 36-60 37" id="i"/><path d="M59-47c-2 24 18 29 38 22v24C64 9 27 4 27-40v-127H5v-23h24l9-43h21v43h35v23H59v120" id="j"/><path d="M100-194c63 0 86 42 84 106H49c0 40 14 67 53 68 26 1 43-12 49-29l28 8c-11 28-37 45-77 45C44 4 14-33 15-96c1-61 26-98 85-98zm52 81c6-60-76-77-97-28-3 7-6 17-6 28h103" id="k"/><path d="M114-163C36-179 61-72 57 0H25l-1-190h30c1 12-1 29 2 39 6-27 23-49 58-41v29" id="l"/><g id="b"><use transform="matrix(0.05,0,0,0.05,0,0)" xlink:href="#g"/><use transform="matrix(0.05,0,0,0.05,12.950000000000001,0)" xlink:href="#h"/><use transform="matrix(0.05,0,0,0.05,22.950000000000003,0)" xlink:href="#i"/><use transform="matrix(0.05,0,0,0.05,32.95,0)" xlink:href="#j"/><use transform="matrix(0.05,0,0,0.05,37.95,0)" xlink:href="#k"/><use transform="matrix(0.05,0,0,0.05,47.95,0)" xlink:href="#l"/></g><path d="M24-231v-30h32v30H24zM24 0v-190h32V0H24" id="m"/><path d="M117-194c89-4 53 116 60 194h-32v-121c0-31-8-49-39-48C34-167 62-67 57 0H25l-1-190h30c1 10-1 24 2 32 11-22 29-35 61-36" id="n"/><g id="c"><use transform="matrix(0.05,0,0,0.05,0,0)" xlink:href="#e"/><use transform="matrix(0.05,0,0,0.05,12,0)" xlink:href="#l"/><use transform="matrix(0.05,0,0,0.05,17.95,0)" xlink:href="#m"/><use transform="matrix(0.05,0,0,0.05,21.9,0)" xlink:href="#n"/><use transform="matrix(0.05,0,0,0.05,31.899999999999995,0)" xlink:href="#j"/><use transform="matrix(0.05,0,0,0.05,36.9,0)" xlink:href="#k"/><use transform="matrix(0.05,0,0,0.05,46.9,0)" xlink:href="#l"/></g><path d="M185-189c-5-48-123-54-124 2 14 75 158 14 163 119 3 78-121 87-175 55-17-10-28-26-33-46l33-7c5 56 141 63 141-1 0-78-155-14-162-118-5-82 145-84 179-34 5 7 8 16 11 25" id="o"/><path d="M108 0H70L1-190h34L89-25l56-165h34" id="p"/><g id="d"><use transform="matrix(0.05,0,0,0.05,0,0)" xlink:href="#o"/><use transform="matrix(0.05,0,0,0.05,12,0)" xlink:href="#k"/><use transform="matrix(0.05,0,0,0.05,22,0)" xlink:href="#l"/><use transform="matrix(0.05,0,0,0.05,27.950000000000003,0)" xlink:href="#p"/><use transform="matrix(0.05,0,0,0.05,36.95,0)" xlink:href="#k"/><use transform="matrix(0.05,0,0,0.05,46.95,0)" xlink:href="#l"/></g></defs></g></svg>